<svg width="61" height="55" viewBox="0 0 61 55" fill="none" xmlns="http://www.w3.org/2000/svg">
<path d="M50.1667 33.1667C54.3883 29.03 58.6667 24.0717 58.6667 17.5833C58.6667 13.4504 57.0249 9.48669 54.1024 6.56425C51.18 3.64181 47.2163 2 43.0833 2C38.0967 2 34.5833 3.41667 30.3333 7.66667C26.0833 3.41667 22.57 2 17.5833 2C13.4504 2 9.4867 3.64181 6.56425 6.56425C3.64181 9.48669 2 13.4504 2 17.5833C2 24.1 6.25 29.0583 10.5 33.1667L30.3333 53L50.1667 33.1667Z" stroke="white" stroke-width="4" stroke-linecap="round" stroke-linejoin="round"/>
<path d="M30.3333 7.66669L21.9466 16.0534C21.3709 16.6249 20.914 17.3046 20.6023 18.0535C20.2905 18.8023 20.1299 19.6055 20.1299 20.4167C20.1299 21.2279 20.2905 22.031 20.6023 22.7799C20.914 23.5288 21.3709 24.2085 21.9466 24.78C24.2699 27.1034 27.9816 27.1884 30.4466 24.9784L36.3116 19.595C37.7817 18.2611 39.6957 17.5221 41.6808 17.5221C43.6659 17.5221 45.5799 18.2611 47.0499 19.595L55.4366 27.1317M47.3333 36L41.6666 30.3334M38.8333 44.5L33.1666 38.8334" stroke="white" stroke-width="4" stroke-linecap="round" stroke-linejoin="round"/>
</svg>
