<svg width="51" height="57" viewBox="0 0 51 57" fill="none" xmlns="http://www.w3.org/2000/svg">
<path d="M36.5366 0L19.4069 2.46541L22.2091 7.20281C25.3075 7.01135 27.8259 8.37559 28.931 10.2929C29.5292 11.3307 29.6834 12.6568 29.0442 13.7465C28.6254 14.4603 27.9186 14.9805 27.0201 15.3331L29.1235 18.8813L34.8713 18.033L35.6039 17.9271L35.993 18.5556C37.8054 21.4614 40.1544 22.384 41.0721 22.2364C41.531 22.1627 41.6644 22.0643 41.7669 21.5777C41.8694 21.0908 41.7548 20.0808 40.9928 18.6657L40.2262 17.2455L41.8237 17.0106L46.1324 16.3744L36.5366 0ZM17.1979 2.7835L6.26515 4.35521L6.53343 4.81327L20.1622 28.1329L31.0647 26.5991L24.3237 15.2121L23.4589 13.7543L25.1319 13.5119C26.4032 13.3287 26.924 12.8981 27.0992 12.5992C27.2747 12.3002 27.2787 11.9563 26.9748 11.4291C26.3669 10.3746 24.4012 9.1246 21.7558 9.50535L21.0081 9.61502L20.6229 8.96368L17.0241 2.88578L17.1979 2.7835ZM5.97815 8.34639L3.08925 19.8471L6.91469 26.3076L7.19021 26.7696L7.0017 27.277C6.01827 29.9438 6.71119 33.0288 7.77196 34.6615C8.30222 35.4777 8.90148 35.8127 9.07103 35.8278C9.15562 35.8353 9.17097 35.846 9.30136 35.7369C9.43187 35.6279 9.64769 35.3542 9.84878 34.8393L10.6834 32.7075L11.8655 34.6653L16.7407 42.7202L28.1717 41.0348L31.1928 28.8676L19.7241 30.4807L18.9764 30.5868L18.595 29.9316L5.97815 8.34639ZM47.3672 18.4801L43.6247 19.0331C44.0319 20.1395 44.1657 21.1424 43.9761 22.0437C43.7068 23.3222 42.6355 24.2773 41.4307 24.471C39.177 24.8333 36.5813 23.3651 34.5088 20.3775L30.3698 20.9908L33.7304 26.6636L33.9685 27.0649L33.8551 27.5157L30.5887 40.6788L34.8296 40.0536C35.7848 36.3294 38.0918 34.2457 40.4791 34.1612C41.7576 34.116 43.0162 34.7065 43.7872 35.7896C44.3241 36.544 44.6089 37.5099 44.6482 38.6071L47.7184 38.1526L51 25.0919L48.3037 20.0819L47.3672 18.4801ZM2.30751 22.96L0 32.1357L12.4167 53.2852L14.7846 43.8599L10.8572 37.3652C10.8194 37.4001 10.7871 37.442 10.7477 37.475C10.2199 37.9163 9.51706 38.1394 8.86692 38.0809C7.56664 37.9642 6.62321 37.0402 5.87966 35.896C4.47062 33.7272 3.7081 30.3436 4.72053 27.0385L2.30751 22.96ZM40.5582 36.4261C39.3861 36.4675 37.5253 37.7088 36.8463 41.2769L36.6952 42.0686L35.9021 42.1859L16.8314 44.9919L13.935 56.5116L13.8105 57L44.0742 52.6454L47.118 40.531L43.6135 41.0497L42.0879 41.2733L42.3332 39.7471C42.5432 38.4505 42.2986 37.6003 41.9481 37.1078C41.5975 36.6154 41.1443 36.4054 40.5582 36.4261Z" fill="white"/>
</svg>
