<svg width="47" height="55" viewBox="0 0 47 55" fill="none" xmlns="http://www.w3.org/2000/svg">
<path d="M38.8913 37.2872V55H16.2521V48.6114H12.9262C8.30759 48.6114 4.56087 44.9281 4.56087 40.3794V34.547H1.71621C1.26211 34.5466 0.826659 34.3693 0.505062 34.054C0.183464 33.7387 0.00187719 33.3109 0 32.8643C0 32.6303 0.0426167 32.4085 0.12785 32.2102L4.56087 21.231C4.56087 21.231 5.019 16.6832 5.43629 14.942C7.28213 7.10815 16.1606 0 25.7884 0C37.5009 0 47 9.34364 47 20.8739C47 27.5323 43.8286 33.4668 38.8913 37.2872ZM9.77254 20.7333C9.14663 20.7349 8.54689 20.9805 8.10472 21.4162C7.66254 21.8519 7.414 22.4422 7.41353 23.0578C7.41211 23.6749 7.65974 24.2673 8.10204 24.7049C8.54434 25.1426 9.14515 25.3897 9.77254 25.392C10.0844 25.3922 10.3933 25.332 10.6815 25.2149C10.9698 25.0977 11.2317 24.9258 11.4524 24.7091C11.6731 24.4923 11.8483 24.2349 11.9678 23.9516C12.0874 23.6683 12.1491 23.3646 12.1493 23.0578C12.1467 22.4398 11.8951 21.8481 11.4495 21.4123C11.004 20.9765 10.4009 20.7324 9.77254 20.7333ZM30.3253 15.6685C30.3253 16.2512 30.5607 16.81 30.9796 17.2221C31.3985 17.6341 31.9667 17.8656 32.5592 17.8656C33.1516 17.8656 33.7198 17.6341 34.1387 17.2221C34.5576 16.81 34.793 16.2512 34.793 15.6685C34.793 15.0858 34.5576 14.527 34.1387 14.1149C33.7198 13.7029 33.1516 13.4714 32.5592 13.4714C31.9667 13.4714 31.3985 13.7029 30.9796 14.1149C30.5607 14.527 30.3253 15.0858 30.3253 15.6685ZM13.4411 13.2828C13.441 13.5722 13.4989 13.8588 13.6116 14.1262C13.7243 14.3936 13.8895 14.6365 14.0977 14.841C14.3059 15.0454 14.5531 15.2075 14.8252 15.3179C15.0972 15.4283 15.3887 15.4848 15.6829 15.4842C16.2773 15.4842 16.8473 15.252 17.2675 14.8387C17.6878 14.4254 17.9239 13.8647 17.9239 13.2802C17.9239 12.6956 17.6878 12.135 17.2675 11.7217C16.8473 11.3084 16.2773 11.0761 15.6829 11.0761C15.3884 11.0761 15.0967 11.1332 14.8246 11.2442C14.5525 11.3551 14.3053 11.5176 14.0971 11.7226C13.8889 11.9275 13.7238 12.1708 13.6113 12.4385C13.4987 12.7062 13.4409 12.9931 13.4411 13.2828ZM39.9576 18.1144L43.2045 17.5652V14.4914L40.0766 13.9613C39.9279 13.4063 39.7164 12.8694 39.4462 12.3607L41.3417 9.71302L39.1425 7.54215L36.5438 9.34277C36.1515 9.11508 35.7401 8.92081 35.3141 8.76207C35.1925 8.7184 35.0709 8.68609 34.9492 8.64942L34.3828 5.45774H31.2585L30.7311 8.53153C30.1632 8.67626 29.6141 8.88489 29.0948 9.15328L26.4064 7.28455L24.1894 9.45978L26.0308 12.0053C25.7962 12.3935 25.5977 12.8018 25.4377 13.2252C25.3907 13.3448 25.3605 13.4645 25.3214 13.5841L22.6392 14.0364V12.5711L20.591 12.2253C20.4962 11.8759 20.3615 11.5382 20.1897 11.2185L21.4451 9.47375L19.9943 8.0495L18.2861 9.23449C18.0349 9.08713 17.7718 8.96038 17.4995 8.8555C17.4276 8.82931 17.353 8.82319 17.2793 8.80049L16.9082 6.69861H14.8688L14.5119 8.71578C14.1523 8.80922 13.8105 8.94719 13.482 9.11573L11.7045 7.88534L10.2609 9.30959L11.4683 10.9897C11.3172 11.235 11.1891 11.4934 11.0857 11.7616C11.0581 11.8341 11.0413 11.9057 11.0182 11.9808L8.89268 12.3397V14.356L10.9552 14.7036C11.0487 15.0511 11.1789 15.3853 11.3458 15.7061L10.0913 17.4525L11.5367 18.8785L13.2511 17.6909C13.5006 17.835 13.759 17.9686 14.0395 18.0717C14.1115 18.0987 14.186 18.104 14.258 18.1284L14.6291 20.2303L16.6676 20.2286L17.0254 18.214C17.3812 18.1187 17.7253 17.9855 18.0517 17.8167L19.8221 19.0444L21.2728 17.6211L20.0671 15.941C20.2119 15.6973 20.3459 15.4467 20.448 15.1734C20.4773 15.1009 20.4826 15.0249 20.5084 14.9507L22.0817 14.6835V17.2063L25.2042 17.7346C25.3516 18.2952 25.5665 18.8331 25.8381 19.344L23.9426 21.982L26.1462 24.1555L28.7432 22.3549C29.1312 22.5776 29.5369 22.7749 29.9737 22.933C30.0954 22.9784 30.217 23.0089 30.3386 23.0474L30.9051 26.2408H33.6166L33.3928 27.5201C33.0013 27.6074 32.632 27.7593 32.2839 27.9515L30.9877 27.0503L29.9711 28.051L30.8483 29.2727C30.6973 29.5084 30.5659 29.7591 30.4656 30.0298C30.4257 30.138 30.4097 30.2463 30.3786 30.3546L28.8053 30.6192V32.0295L30.3111 32.2862C30.3981 32.6739 30.5526 33.0363 30.7497 33.3813L29.8335 34.6544L30.8465 35.6578L32.0886 34.7915C32.3283 34.9417 32.5849 35.071 32.861 35.1714C32.9711 35.2116 33.083 35.2264 33.1957 35.257L33.4541 36.7965H34.8933L35.1561 35.3216C35.5503 35.236 35.9197 35.0841 36.2695 34.8902L37.5586 35.7905L38.5788 34.7889L37.7016 33.5742C37.8561 33.3367 37.9892 33.0835 38.0922 32.8102C38.1304 32.7036 38.1464 32.5953 38.1775 32.4871L39.7374 32.2225V30.8069L38.2396 30.5546C38.1499 30.1709 38.002 29.8026 37.801 29.4622L38.7146 28.1864L37.6962 27.1865L36.4559 28.044C36.2136 27.8914 35.9556 27.7643 35.6862 27.665C35.5805 27.6275 35.4722 27.6118 35.3639 27.5838L35.0895 26.0443H34.0614L34.5577 23.1644C35.1239 23.0208 35.6712 22.8131 36.1887 22.5452L38.8806 24.414L41.0869 22.2431L39.2526 19.6889C39.4808 19.3064 39.6832 18.9056 39.8457 18.476C39.891 18.3555 39.9221 18.2358 39.9611 18.1162L39.9576 18.1144ZM32.0335 31.5134C32.0343 32.0981 32.271 32.6586 32.6917 33.0717C33.1124 33.4849 33.6826 33.7168 34.2771 33.7166C34.5707 33.716 34.8612 33.6586 35.1322 33.5475C35.4032 33.4365 35.6492 33.274 35.8563 33.0694C36.0634 32.8648 36.2275 32.6221 36.3393 32.3551C36.451 32.0881 36.5081 31.8021 36.5074 31.5134C36.508 31.2248 36.4508 30.9389 36.339 30.6721C36.2272 30.4052 36.0631 30.1627 35.856 29.9583C35.6489 29.7538 35.4028 29.5915 35.1319 29.4806C34.861 29.3697 34.5706 29.3124 34.2771 29.312C33.6829 29.3115 33.1127 29.5431 32.692 29.9559C32.2713 30.3687 32.0345 30.9289 32.0335 31.5134Z" fill="white"/>
</svg>
